<?xml version="1.0" encoding="UTF-8"?>
<svg version="1.1" xmlns="http://www.w3.org/2000/svg" width="200" height="200">
<path d="M0 0 C1.79667114 0.54865723 1.79667114 0.54865723 3.62963867 1.10839844 C7.06951708 2.16424192 10.50388705 3.23648814 13.9375 4.3125 C14.80181641 4.57820801 15.66613281 4.84391602 16.55664062 5.11767578 C28.04648832 8.65206358 35.09347549 13.15530488 43.6171875 21.5859375 C44.42995148 22.38730133 45.24271545 23.18866516 46.08010864 24.01431274 C47.78894196 25.70431775 49.49493459 27.39719936 51.19824219 29.09277344 C53.81085932 31.68587158 56.44402207 34.25687911 59.078125 36.828125 C60.73829177 38.47524055 62.39719075 40.12363513 64.0546875 41.7734375 C64.84519501 42.5392514 65.63570251 43.30506531 66.45016479 44.09408569 C71.79068923 49.4790443 71.79068923 49.4790443 72.53173828 53.68603516 C71.46659889 58.39382873 68.62595219 60.74123116 65 63.75 C61.87536005 66.36449465 59.53286317 69.18475464 56.9375 72.3125 C55.27083333 73.64583333 53.60416667 74.97916667 51.9375 76.3125 C50.03047801 78.23481895 48.53926425 80.09829648 46.9375 82.3125 C48.17284702 86.01854107 50.13485224 87.64998463 52.9375 90.3125 C54.80001681 92.17501681 54.23964039 95.0628549 54.3125 97.5625 C54.28497028 103.84615831 54.28497028 103.84615831 51.5625 107.5 C50.69625 108.098125 49.83 108.69625 48.9375 109.3125 C48.2775 109.9725 47.6175 110.6325 46.9375 111.3125 C44.94928687 111.71014263 42.94805661 112.05025349 40.9375 112.3125 C40.875625 113.199375 40.81375 114.08625 40.75 115 C39.48309817 120.1650613 36.23808803 122.44544132 31.9375 125.3125 C30.6175 125.3125 29.2975 125.3125 27.9375 125.3125 C27.7828125 126.3953125 27.7828125 126.3953125 27.625 127.5 C26.57138297 131.81025149 25.08243366 134.46113907 21.5 137.125 C18.9375 138.3125 18.9375 138.3125 14.9375 138.3125 C14.834375 139.034375 14.73125 139.75625 14.625 140.5 C13.6315748 144.56401218 12.63656675 147.23529168 8.984375 149.55078125 C3.98406149 152.0254262 0.4652143 152.90703297 -5.0625 151.3125 C-9.83821039 148.920549 -13.19871649 145.40784246 -16.875 141.625 C-17.47248047 141.01849609 -18.06996094 140.41199219 -18.68554688 139.78710938 C-20.14914185 138.30009688 -21.60646102 136.80691189 -23.0625 135.3125 C-26.83194944 137.04049921 -29.20525231 139.30080649 -32.0625 142.3125 C-33.0625 143.3125 -33.0625 143.3125 -36.8125 143.625 C-40.0152159 143.57908293 -41.0598251 143.31407005 -43.9375 141.625 C-46.19860758 139.16438293 -47.27235816 137.55208155 -48.0625 134.3125 C-47.6875 131.5 -47.6875 131.5 -47.0625 129.3125 C-47.784375 129.51875 -48.50625 129.725 -49.25 129.9375 C-53.22012721 130.46685029 -55.55795459 129.33344153 -58.8125 127.125 C-60.73422881 124.33849323 -60.8209742 121.63347973 -61.0625 118.3125 C-60.7325 117.6525 -60.4025 116.9925 -60.0625 116.3125 C-60.76375 116.539375 -61.465 116.76625 -62.1875 117 C-66.00230063 117.41465224 -67.86648096 116.3463303 -71.0625 114.3125 C-71.3925 113.3225 -71.7225 112.3325 -72.0625 111.3125 C-72.7225 111.3125 -73.3825 111.3125 -74.0625 111.3125 C-74.3925 109.0025 -74.7225 106.6925 -75.0625 104.3125 C-78.5275 103.8175 -78.5275 103.8175 -82.0625 103.3125 C-82.0625 102.6525 -82.0625 101.9925 -82.0625 101.3125 C-83.5475 100.8175 -83.5475 100.8175 -85.0625 100.3125 C-87.11383668 97.23549498 -87.705165 95.27146166 -87.6640625 91.5859375 C-86.41813387 86.87729811 -82.48108424 83.60899195 -79.0625 80.3125 C-79.5575 79.85875 -80.0525 79.405 -80.5625 78.9375 C-82.0625 77.3125 -82.0625 77.3125 -82.0625 75.3125 C-83.5475 74.8175 -83.5475 74.8175 -85.0625 74.3125 C-85.0625 73.6525 -85.0625 72.9925 -85.0625 72.3125 C-86.3825 71.6525 -87.7025 70.9925 -89.0625 70.3125 C-89.0625 69.6525 -89.0625 68.9925 -89.0625 68.3125 C-89.660625 68.044375 -90.25875 67.77625 -90.875 67.5 C-93.06097854 66.31332594 -94.47582594 65.21650887 -96.0625 63.3125 C-96.0625 62.6525 -96.0625 61.9925 -96.0625 61.3125 C-97.3825 60.6525 -98.7025 59.9925 -100.0625 59.3125 C-100.0625 58.6525 -100.0625 57.9925 -100.0625 57.3125 C-101.0525 56.9825 -102.0425 56.6525 -103.0625 56.3125 C-103.0625 53.6725 -103.0625 51.0325 -103.0625 48.3125 C-99.91577148 47.49047852 -99.91577148 47.49047852 -96.0625 47.3125 C-93.75139873 48.9946767 -92.25036273 50.36120543 -90.41015625 52.46484375 C-89.90632919 52.99896378 -89.40250214 53.5330838 -88.88340759 54.08338928 C-86.73561966 56.36153891 -84.63809064 58.6839533 -82.53540039 61.00366211 C-80.98956924 62.69469106 -79.41982115 64.36083045 -77.84765625 66.02734375 C-77.38593521 66.55545151 -76.92421417 67.08355927 -76.44850159 67.62767029 C-74.50110483 69.68760036 -72.88698797 71.20011295 -70.02047729 71.59085083 C-68.03251409 71.56297571 -66.04645953 71.44164849 -64.0625 71.3125 C-61.25 72.625 -61.25 72.625 -59.0625 74.3125 C-58.464375 74.704375 -57.86625 75.09625 -57.25 75.5 C-55.24336128 78.56276436 -55.88607437 81.72517887 -56.0625 85.3125 C-55.45921875 85.33828125 -54.8559375 85.3640625 -54.234375 85.390625 C-50.50166909 85.65552671 -47.77398407 85.86782246 -44.5625 87.875 C-42.42210278 91.35314549 -42.33325979 94.25110316 -42.0625 98.3125 C-40.99 98.43625 -39.9175 98.56 -38.8125 98.6875 C-33.38508065 99.59206989 -33.38508065 99.59206989 -31.0625 101.3125 C-29.22125582 104.71880173 -28.84312439 107.47342674 -29.0625 111.3125 C-27.7321875 111.2196875 -27.7321875 111.2196875 -26.375 111.125 C-22.6142485 111.33787273 -20.97938994 111.9627831 -18.0625 114.3125 C-16.27605385 117.37497911 -16.01483749 118.94390994 -16.47265625 122.484375 C-15.86848119 128.12334226 -12.8070073 130.52473245 -8.8125 134.3125 C-8.13058594 135.00472656 -7.44867188 135.69695312 -6.74609375 136.41015625 C-4.07486218 139.07639316 -4.07486218 139.07639316 -1.0625 141.3125 C1.13005447 141.08682766 1.13005447 141.08682766 2.9375 140.3125 C3.72976731 138.5190028 3.72976731 138.5190028 3.9375 136.3125 C2.70290393 134.24877433 2.70290393 134.24877433 0.8125 132.375 C0.16667969 131.68277344 -0.47914062 130.99054688 -1.14453125 130.27734375 C-1.77746094 129.62894531 -2.41039063 128.98054687 -3.0625 128.3125 C-3.56136719 127.79816406 -4.06023437 127.28382813 -4.57421875 126.75390625 C-5.72227726 125.59205725 -6.89090994 124.45061606 -8.0625 123.3125 C-10.0625 121.3125 -10.0625 121.3125 -10.3125 118.8125 C-10.0625 116.3125 -10.0625 116.3125 -8.0625 114.3125 C-5.34765625 113.78125 -5.34765625 113.78125 -2.0625 114.3125 C0.43458404 116.19675206 2.43504412 118.47270311 4.5 120.8125 C8.38618828 125.59216634 8.38618828 125.59216634 13.83984375 127.71875 C14.53207031 127.5846875 15.22429687 127.450625 15.9375 127.3125 C16.69394808 124.58928692 17.10781512 122.85441176 16.25 120.125 C15.07029281 118.19961355 15.07029281 118.19961355 13.08984375 117.3984375 C9.31222918 115.4924904 6.43465509 112.7102684 3.9375 109.3125 C3.3125 105.5 3.3125 105.5 3.9375 102.3125 C6.9375 100.3125 6.9375 100.3125 8.8125 100.375 C11.86947354 101.7236648 13.63894982 103.90449505 15.9375 106.3125 C16.96708377 107.20168598 18.00890989 108.07689421 19.0625 108.9375 C21.9375 111.3125 21.9375 111.3125 23.5 113.125 C25.59340919 114.85433802 27.31553131 114.52509206 29.9375 114.3125 C30.43808566 112.07613405 30.43808566 112.07613405 29.9375 109.3125 C28.0107629 107.04865656 26.17177703 105.11928787 24 103.125 C17.04038949 96.54717383 17.04038949 96.54717383 16.6875 92.3125 C16.77 91.3225 16.8525 90.3325 16.9375 89.3125 C19.9375 87.3125 19.9375 87.3125 22.21875 87.27734375 C26.93173682 89.07179994 29.79987334 93.06069205 33.12109375 96.74023438 C36.35372797 100.34602365 36.35372797 100.34602365 40.84375 101.71484375 C41.5346875 101.58207031 42.225625 101.44929688 42.9375 101.3125 C42.7605108 96.79927536 42.55984547 94.89241283 39.1875 91.75 C38.64609375 91.35683594 38.1046875 90.96367188 37.546875 90.55859375 C34.93327914 88.53496006 33.04723111 85.84417733 30.9375 83.3125 C28.94084402 81.64182867 26.94098966 79.97497014 24.9375 78.3125 C23.60416667 76.64583333 22.27083333 74.97916667 20.9375 73.3125 C19.46922001 72.09957305 17.99996307 70.88756497 16.51171875 69.69921875 C14.20029069 67.66309726 12.33497393 65.30580183 10.375 62.9375 C8.45501508 60.76708227 6.20238225 59.11279102 3.9375 57.3125 C3.133125 56.343125 2.32875 55.37375 1.5 54.375 C-1.16963456 51.18446114 -3.83200982 48.91093776 -7.0625 46.3125 C-8.9375 44.625 -8.9375 44.625 -10.0625 43.3125 C-10.0625 42.6525 -10.0625 41.9925 -10.0625 41.3125 C-11.3825 41.3125 -12.7025 41.3125 -14.0625 41.3125 C-14.0625 41.9725 -14.0625 42.6325 -14.0625 43.3125 C-15.0525 43.3125 -16.0425 43.3125 -17.0625 43.3125 C-17.3925 44.6325 -17.7225 45.9525 -18.0625 47.3125 C-18.7225 47.3125 -19.3825 47.3125 -20.0625 47.3125 C-20.371875 48.488125 -20.371875 48.488125 -20.6875 49.6875 C-23.43673568 56.93548499 -26.80688866 63.74806064 -33.85546875 67.53515625 C-38.62942475 69.2166027 -43.32004474 69.24754665 -48.11328125 67.61328125 C-52.47747237 65.39847762 -55.05937198 62.71938165 -57.0625 58.3125 C-57.89127517 51.90832825 -57.54376207 47.77707724 -54.0625 42.3125 C-53.20852301 40.24582215 -52.39793679 38.16083332 -51.625 36.0625 C-49.60440542 30.71210901 -47.48053642 25.49288872 -45.0625 20.3125 C-44.80130371 19.70438477 -44.54010742 19.09626953 -44.27099609 18.46972656 C-37.69132228 3.17407401 -37.69132228 3.17407401 -29.375 -0.78125 C-28.2303125 -1.22984375 -28.2303125 -1.22984375 -27.0625 -1.6875 C-26.03125 -2.14125 -25 -2.595 -23.9375 -3.0625 C-15.33629354 -4.93232749 -8.21412724 -2.5603955 0 0 Z " fill="#0E0000" transform="translate(103.0625,31.6875)"/>
<path d="M0 0 C5.0877203 3.6922313 9.08285099 8.13003096 13 13 C14.65362945 14.67960269 16.32269159 16.34404346 18 18 C19.0528333 19.05133283 20.10488234 20.10345148 21.15625 21.15625 C21.70410156 21.70410156 22.25195312 22.25195312 22.81640625 22.81640625 C27.84375 27.84375 27.84375 27.84375 29.44921875 29.48828125 C31.15700956 31.20696228 31.15700956 31.20696228 33.90625 33.28125 C36.59759587 36.77598269 36.84506729 39.09622724 36.61376953 43.44091797 C35.48275319 48.15663525 32.42056652 50.86832119 28.9375 54.0625 C27.95233398 55.05540039 27.95233398 55.05540039 26.94726562 56.06835938 C23.80845373 59.08347425 21.58425014 60.81911565 17.37890625 62.12109375 C9.77566211 61.84860754 5.31425401 56.75747546 0.265625 51.6640625 C-0.45361145 50.94769623 -1.1728479 50.23132996 -1.91387939 49.49325562 C-3.42690759 47.98226244 -4.93617977 46.46749993 -6.44189453 44.94921875 C-8.74576986 42.62925967 -11.06523419 40.3257606 -13.38671875 38.0234375 C-14.85773389 36.5504403 -16.32781833 35.07651294 -17.796875 33.6015625 C-18.48956482 32.91494537 -19.18225464 32.22832825 -19.89593506 31.52090454 C-24.20959693 27.14362114 -26.95764389 24.03199124 -27.046875 17.64453125 C-25.61783488 12.66955204 -22.95236587 10.17626784 -19.25 6.6875 C-18.62867188 6.06810547 -18.00734375 5.44871094 -17.3671875 4.81054688 C-11.95982745 -0.44280609 -7.4296135 -3.75310373 0 0 Z M12.25 41.125 C9.62481564 43.827975 9.62481564 43.827975 10.1875 47.3125 C10.455625 48.199375 10.72375 49.08625 11 50 C16.28199593 51.19988045 16.28199593 51.19988045 21 49 C21.54996846 44.27309353 21.54996846 44.27309353 19.6875 40.0625 C16.46406328 38.03292873 15.13220229 38.89784369 12.25 41.125 Z " fill="#0E0000" transform="translate(164,18)"/>
</svg>
